<svg xmlns="http://www.w3.org/2000/svg" width="128" height="128" viewBox="0 0 128 128">
  <defs>
    <linearGradient id="bg" x1="0%" y1="0%" x2="100%" y2="100%">
      <stop offset="0%" style="stop-color:#6366f1"/>
      <stop offset="100%" style="stop-color:#8b5cf6"/>
    </linearGradient>
    <linearGradient id="glow" x1="0%" y1="0%" x2="100%" y2="100%">
      <stop offset="0%" style="stop-color:#a5b4fc"/>
      <stop offset="100%" style="stop-color:#c4b5fd"/>
    </linearGradient>
  </defs>
  <rect width="128" height="128" rx="28" fill="url(#bg)"/>
  <!-- Brain icon -->
  <g transform="translate(24, 20) scale(3.3)" fill="none" stroke="url(#glow)" stroke-width="1.8" stroke-linecap="round" stroke-linejoin="round">
    <path d="M12 2a5 5 0 0 1 4.5 2.8A4 4 0 0 1 20 9a4 4 0 0 1-1 7.5 5 5 0 0 1-7 4.5 5 5 0 0 1-7-4.5A4 4 0 0 1 4 9a4 4 0 0 1 3.5-4.2A5 5 0 0 1 12 2z"/>
    <path d="M12 2v20"/>
    <path d="M4.5 9h15"/>
    <path d="M5.5 16h13"/>
    <!-- Sparkle -->
    <circle cx="22" cy="3" r="1" fill="#fbbf24" stroke="none"/>
    <circle cx="24" cy="5" r="0.5" fill="#fbbf24" stroke="none"/>
  </g>
</svg>
